<?xml version="1.0" encoding="UTF-8" standalone="no"?>
<!-- Created with Inkscape (http://www.inkscape.org/) -->

<svg
   xmlns:dc="http://purl.org/dc/elements/1.1/"
   xmlns:cc="http://creativecommons.org/ns#"
   xmlns:rdf="http://www.w3.org/1999/02/22-rdf-syntax-ns#"
   xmlns:svg="http://www.w3.org/2000/svg"
   xmlns="http://www.w3.org/2000/svg"
   xmlns:sodipodi="http://sodipodi.sourceforge.net/DTD/sodipodi-0.dtd"
   xmlns:inkscape="http://www.inkscape.org/namespaces/inkscape"
   inkscape:version="0.47pre4 r22446"
   version="1.1"
   id="svg2959"
   height="128"
   width="128"
   sodipodi:docname="LogoV2.svg"
   inkscape:export-filename="/home/mhoareau/Documents/Projet_PHP/MeteoLoab/LogoV2.png"
   inkscape:export-xdpi="90"
   inkscape:export-ydpi="90">
  <defs
     id="defs2961">
    <linearGradient
       id="linearGradient5557">
      <stop
         style="stop-color:#d3ce41;stop-opacity:1;"
         offset="0"
         id="stop5559" />
      <stop
         style="stop-color:#d3ce41;stop-opacity:0;"
         offset="1"
         id="stop5561" />
    </linearGradient>
    <inkscape:perspective
       sodipodi:type="inkscape:persp3d"
       inkscape:vp_x="0 : 526.18109 : 1"
       inkscape:vp_y="0 : 1000 : 0"
       inkscape:vp_z="744.09448 : 526.18109 : 1"
       inkscape:persp3d-origin="372.04724 : 350.78739 : 1"
       id="perspective2967" />
    <filter
       id="filter3135"
       inkscape:label="Noisy blur"
       inkscape:menu="Blurs"
       inkscape:menu-tooltip="Small-scale roughening and blurring to edges and content"
       color-interpolation-filters="sRGB"
       x="-0.25"
       width="1.5"
       y="-0.25"
       height="1.5">
      <feGaussianBlur
         id="feGaussianBlur3137"
         result="result6"
         stdDeviation="3"
         in="SourceGraphic" />
      <feColorMatrix
         id="feColorMatrix3139"
         values="1 0 0 0 0 0 1 0 0 0 0 0 1 0 0 0 0 0 1 0 "
         result="result7"
         in="SourceGraphic" />
      <feComposite
         id="feComposite3141"
         in2="result7"
         operator="in"
         in="result6"
         result="fbSourceGraphic" />
      <feColorMatrix
         result="fbSourceGraphicAlpha"
         in="fbSourceGraphic"
         values="0 0 0 -1 0 0 0 0 -1 0 0 0 0 -1 0 0 0 0 1 0"
         id="feColorMatrix3215" />
      <feGaussianBlur
         id="feGaussianBlur3217"
         stdDeviation="5"
         result="result1"
         in="fbSourceGraphic" />
      <feTurbulence
         id="feTurbulence3219"
         numOctaves="1"
         seed="0"
         type="fractalNoise"
         baseFrequency="0.1"
         result="result2" />
      <feDisplacementMap
         id="feDisplacementMap3221"
         in2="result2"
         scale="5"
         yChannelSelector="G"
         xChannelSelector="R"
         result="result3"
         in="result1" />
      <feComposite
         id="feComposite3223"
         in2="result3"
         operator="atop" />
    </filter>
  </defs>
  <sodipodi:namedview
     id="base"
     pagecolor="#ffffff"
     bordercolor="#666666"
     borderopacity="1.0"
     inkscape:pageopacity="0"
     inkscape:pageshadow="2"
     inkscape:zoom="6.21"
     inkscape:cx="59.694552"
     inkscape:cy="77.283498"
     inkscape:document-units="px"
     inkscape:current-layer="layer1"
     showgrid="false"
     inkscape:window-width="1920"
     inkscape:window-height="1055"
     inkscape:window-x="0"
     inkscape:window-y="1"
     inkscape:window-maximized="1" />
  <metadata
     id="metadata2964">
    <rdf:RDF>
      <cc:Work
         rdf:about="">
        <dc:format>image/svg+xml</dc:format>
        <dc:type
           rdf:resource="http://purl.org/dc/dcmitype/StillImage" />
      </cc:Work>
    </rdf:RDF>
  </metadata>
  <g
     inkscape:label="Calque 1"
     inkscape:groupmode="layer"
     id="layer1"
     transform="translate(0,-924.36218)">
    <path
       style="fill:#00005b;stroke:#0c0000;fill-opacity:1;fill-rule:nonzero;stroke-opacity:1;stroke-width:0.50000000000000000;stroke-miterlimit:4;stroke-dasharray:none"
       d="m 26.811795,948.19892 c -2.988584,0.47181 -8.468195,4.38512 -6.850744,8.09119 6.665878,2.30493 9.366792,-1.05182 19.662475,-2.11084 14.92466,-0.87443 34.443943,0.71791 51.563974,2.03948 0.159929,-0.0735 3.387258,0.41327 1.590389,0.14442 5.654544,0.58055 11.317701,1.11888 16.784611,2.73058 0.4337,-1.30163 2.08637,1.51293 -6.49938,0.66007 -23.029413,1.21277 -47.22151,-2.54474 -68.965216,6.88641 -4.12094,2.26072 -10.342206,3.49668 -12.254154,8.17227 -0.06188,6.42579 8.661267,6.49127 13.15625,7.71875 21.494676,2.92422 43.417614,1.15594 64.90625,4.21875 -17.78964,2.36263 -35.584901,1.32277 -53.262128,4.6489 0.22757,0.0164 -2.098884,-0.1518 -4.470964,1.40625 -2.473197,1.04999 -5.94019,3.94275 -3.548158,7.00735 10.434662,4.9755 22.74082,3.9933 34.022146,5.8156 8.051389,0.443 -5.490614,1.5506 -8.158929,2.4298 -5.324264,1.4317 -13.192197,1.6945 -15.800717,7.2859 -0.04728,5.8378 7.945503,5.8817 11.948683,7.6599 2.524164,0.6419 5.000527,1.4993 7.551317,2.2151 0.655276,2.2091 0.898476,0.2237 1.5,0.625 0.05064,0.5655 -3.792168,0.4907 -4.8125,2.0937 -3.398661,1.4387 2.192491,6.3074 6.56401,3.4548 4.998537,-3.0385 7.044217,-1.6971 9.90474,-7.0798 0.273124,-5.3659 -6.842741,-6.0656 -10.625,-7.4687 -1.171279,-0.7987 -7.73436,-1.6478 -5.40625,-2.0938 9.455763,-2.3156 19.88106,-2.0861 28.78125,-6 3.021488,-1.0509 8.10849,-4.5999 4,-7.4062 -12.342516,-3.59321 -25.676005,-3.17057 -38.375,-5.06255 15.039079,-1.3681 30.66929,0.28411 45.25,-4.03125 3.46435,-1.66784 11.73431,-5.2421 7.5,-10.25 -8.06686,-4.7882 -18.268937,-3.38605 -27.3125,-4.375 -17.428566,-1.24443 -35.321858,0.43914 -52.25,-4.3125 24.926133,-10.3198 52.790174,-2.68628 78.75,-7.5 4.09823,-1.53583 9.9215,-3.22395 11.125,-7.90625 -1.05475,-6.26127 -9.39229,-6.61707 -14.375,-7.78125 -28.612021,-4.21315 -72.802169,-3.97236 -81.594455,-1.92608 z"
       id="path4763"
       sodipodi:nodetypes="cccccccccccccccccccccccccccccccccccc" />
    <path
       sodipodi:type="arc"
       style="fill:#ffff00;filter:url(#filter3135)"
       id="path3017"
       sodipodi:cx="22.245762"
       sodipodi:cy="21.008474"
       sodipodi:rx="17.584745"
       sodipodi:ry="16.737288"
       d="m 39.830507,21.008474 a 17.584745,16.737288 0 1 1 -35.1694905,0 17.584745,16.737288 0 1 1 35.1694905,0 z"
       transform="matrix(0.53818869,0,0,0.53818869,3.7281637,924.69861)" />
    <path
       style="fill:#008000"
       id="path3225"
       d="m 6.5372597,1048.0009 c 0.2464043,-0.5422 0.6734417,-1.0106 1.0367024,-1.4858 0.5093932,-0.6224 1.0257402,-1.2525 1.588677,-1.8319 0.8093048,-0.7401 1.6714389,-1.4131 2.5587859,-2.0564 2.72232,-1.8698 5.654396,-3.4134 8.520279,-5.0499 1.157285,-0.6305 2.348211,-1.1838 3.53949,-1.7438 1.385961,-0.6644 2.849623,-1.134 4.265501,-1.7252 1.55551,-0.5737 3.140711,-1.055 4.721802,-1.5509 1.691512,-0.5148 3.402451,-0.9709 5.13155,-1.3409 1.812924,-0.4019 3.639838,-0.7045 5.476952,-0.9744 1.936764,-0.2954 3.882801,-0.5078 5.838824,-0.6505 2.070397,-0.1763 4.144816,-0.4183 6.223798,-0.449 2.180698,-0.072 4.359111,-0.024 6.53956,0.02 2.37687,0.047 4.725971,0.3727 7.09458,0.5755 1.238241,0.1505 2.473232,0.3133 3.715322,0.4295 0.431336,0.04 0.867603,0.041 1.294607,0.1145 0.361431,0.062 0.707628,0.1927 1.061442,0.289 0.405822,0.056 0.811644,0.1129 1.217466,0.1694 0.442001,0.03 0.886826,0.033 1.326002,0.091 0.752186,0.1001 1.483284,0.3257 2.23314,0.4419 1.167457,0.1811 2.309834,0.3092 3.464486,0.5696 0.374036,0.066 0.748072,0.1326 1.122108,0.1988 0.324503,0.1022 0.638749,0.2459 0.973507,0.3065 0.416809,0.076 0.850729,0.02 1.26688,0.099 0.327024,0.062 0.627804,0.222 0.945634,0.3209 0.701742,0.2184 1.316547,0.3653 2.029004,0.5472 3.753689,0.7964 -1.363183,-0.3435 1.960884,0.5593 0.351075,0.095 0.721178,0.1075 1.07265,0.2013 0.296975,0.079 0.569666,0.2354 0.866135,0.3166 1.332511,0.2615 0.687658,0.1085 1.93618,0.4523 1.637685,0.4976 3.22973,1.1097 4.865482,1.6112 1.36789,0.5477 2.80086,0.9225 4.15285,1.5186 0.20337,0.094 0.39948,0.206 0.61012,0.2826 0.23269,0.085 0.48269,0.1151 0.71549,0.1993 0.40833,0.1478 0.76975,0.4104 1.18085,0.5502 1.65677,0.5637 -0.0997,-0.2204 1.29266,0.4393 1.11784,0.4091 2.16549,0.9865 3.277,1.4029 0.17212,0.076 0.34424,0.1525 0.51635,0.2287 0.13637,0.1014 0.25764,0.2271 0.4091,0.304 0.1829,0.093 0.39179,0.1232 0.58218,0.1996 0.55101,0.221 1.02299,0.5575 1.5165,0.8804 0.19596,0.095 0.40233,0.1721 0.58787,0.2865 0.17362,0.1071 0.30897,0.2697 0.48393,0.3746 0.24853,0.1489 1.03501,0.4531 1.28697,0.5803 0.39649,0.2002 0.76917,0.4445 1.15601,0.6628 0.78336,0.3797 1.51787,0.8408 2.32493,1.1632 1.01564,1.5543 -4.34551,5.0575 -5.36115,3.5033 l 0,0 c -0.71973,-0.4471 -1.46636,-0.8382 -2.20953,-1.2441 -1.1804,-0.6041 -2.24588,-1.4288 -3.49361,-1.9162 -0.98937,-0.691 0.0787,-0.011 -1.08702,-0.5415 -1.98337,-0.9035 1.07243,0.3275 -0.97925,-0.5268 -0.18016,-0.075 -0.37981,-0.1044 -0.55085,-0.1984 -0.14308,-0.079 -0.25177,-0.2078 -0.37765,-0.3118 -1.14598,-0.3642 -2.1894,-1.0104 -3.36524,-1.3088 -0.8748,-0.6231 -0.0144,-0.097 -1.18225,-0.5078 -0.20082,-0.071 -0.376,-0.2021 -0.5747,-0.2785 -0.22482,-0.086 -0.46694,-0.1223 -0.69189,-0.2084 -0.2043,-0.078 -0.39473,-0.1888 -0.59209,-0.2831 -0.224825,-0.078 -0.449648,-0.1551 -0.674471,-0.2327 -1.340207,-0.6156 -2.788232,-0.9798 -4.17416,-1.4818 -1.564723,-0.6727 -3.221393,-1.0233 -4.817403,-1.6079 -1.917411,-0.5234 -3.830201,-1.0548 -5.750163,-1.5629 -2.112022,-0.5222 -4.228385,-1.01 -6.367497,-1.41 -2.275433,-0.4667 -4.576408,-0.8463 -6.875774,-1.1672 -2.478817,-0.2628 -4.935066,-0.7728 -7.429113,-0.8718 -1.602807,-0.2623 -3.206948,-0.2901 -4.822735,-0.427 -0.354548,-0.03 -0.705684,-0.099 -1.061078,-0.1165 -0.397318,-0.019 -0.795574,0 -1.193361,0.01 -2.174815,-0.076 -4.357468,-0.1625 -6.528983,0.035 -2.047657,0.037 -4.086543,0.1515 -6.120558,0.4132 -1.946395,0.1778 -3.89545,0.3561 -5.821739,0.6792 -2.519438,0.3518 0.856642,-0.1464 -1.930552,0.3624 -1.189467,0.2171 -2.385625,0.3721 -3.558705,0.6805 -1.720319,0.3633 -3.410625,0.8571 -5.09133,1.37 -1.615564,0.4797 -3.21098,1.0396 -4.783346,1.6462 -1.424131,0.4752 -2.802958,1.092 -4.170508,1.7086 -1.222775,0.5811 -2.440964,1.1714 -3.610735,1.8537 -2.123846,1.1179 -0.585296,0.316 4.299726,-2.5025 0.185056,-0.1068 -0.371933,0.2104 -0.556469,0.318 -0.765304,0.4465 -0.266812,0.1576 -0.983932,0.6167 -0.177251,0.1134 -0.35732,0.2224 -0.53598,0.3337 -0.860941,0.6293 -1.728116,1.2334 -2.526983,1.9423 -0.54297,0.5477 -1.159938,1.0614 -1.559711,1.7264 -0.34888,0.3402 -0.554988,0.7019 -0.857435,1.0697 -0.07186,0.087 -0.171484,0.1538 -0.227242,0.2523 -0.02037,0.036 0.0098,0.082 0.01469,0.1231 0.735645,1.6814 -5.0638177,4.2188 -5.7994623,2.5375 z" />
    <path
       style="fill:#008080"
       id="path4738"
       d="m 13.147638,1040.7092 c 0.164338,-0.075 0.278955,0.018 0.43689,0.037 0.01764,0 0.398714,0.01 0.400661,0.01 0.198018,0.023 0.392239,-0.033 0.588857,-0.035 0.08299,-10e-4 0.614588,0.053 0.672959,0.056 0.379693,0.016 0.675602,-0.01 1.060827,-0.023 0.208213,0 0.416426,0.01 0.624638,0.01 2.546129,-0.4278 4.083023,1.7166 6.396621,2.2154 3.55125,0.051 4.171059,-1.88 7.015051,-1.9052 4.315258,-0.32 3.238168,0.8725 7.687615,3.1048 3.360212,0.082 2.573982,-2.3549 5.147379,-2.3515 1.422793,-0.052 2.038041,-0.5571 3.46,-0.5621 0.441767,0 2.70243,-2.3033 5.105346,-4.3287 1.803967,-1.5206 4.01017,-2.7235 5.26507,-2.8387 1.731559,-0.1589 2.965633,-0.3731 5.203831,0.387 2.677509,0.9092 1.191027,5.0279 0.348204,5.68 -3.884798,3.0057 1.812137,-2.38 -2.315051,-3.0934 -6.974501,-1.2056 -6.645919,7.6775 -5.939818,7.6655 5.803008,0.1518 8.886001,-3.5143 14.573116,-3.5407 0.730237,0 1.460474,0.01 2.190712,0.01 3.555516,0.2506 2.796851,2.2422 6.228859,2.9276 4.270838,-1.9549 5.512516,-2.9177 9.082198,-2.9126 4.51454,-0.6825 5.859926,2.2365 11.044857,2.6537 4.29251,-2.3295 3.38984,-2.1879 6.00357,-2.6205 6.68651,-0.033 -2.30646,-0.087 4.06294,-0.034 3.4115,-0.4409 3.46569,1.6177 8.93731,2.7094 4.37043,-0.7431 3.74124,-2.6519 6.18235,-2.6507 0.52155,0.023 1.03641,0.1405 1.55818,0.1576 8.62558,0.1107 -2.37402,10.0062 -7.96267,8.2582 l 0,0 c -1.68473,-0.047 -3.37087,-0.1026 -5.05594,-0.1315 -0.59741,-0.01 -1.19521,0.01 -1.79245,-0.01 -0.56989,-0.017 -1.13861,-0.062 -1.70792,-0.092 -1.23476,-0.014 -2.47039,0.01 -3.7043,-0.039 -0.58232,-0.023 -1.16145,-0.1078 -1.74404,-0.1215 -0.65674,-0.015 -1.31359,0.027 -1.97047,0.034 -6.495929,0.072 2.66808,-0.061 -3.9626,0.04 -2.369366,-0.03 -1.545295,-0.012 -3.913932,-0.074 -0.660655,-0.017 -1.321014,-0.054 -1.981899,-0.055 -0.718056,-10e-4 -1.435676,0.037 -2.153665,0.047 -1.563998,0.022 -2.698379,0.01 -4.261856,0 -0.723094,0 -1.446188,0 -2.169282,0.01 -0.705087,-0.013 -1.410052,-0.039 -2.115259,-0.039 -0.744797,3e-4 -1.48922,0.041 -2.234016,0.041 -0.707954,-3e-4 -1.415522,-0.05 -2.123438,-0.042 -0.769471,0.01 -1.537334,0.088 -2.306846,0.088 -0.688818,-10e-5 -1.376358,-0.059 -2.064538,-0.089 -5.935723,-0.01 1.638712,-0.012 -4.426556,0.039 -2.906977,0.025 -5.816364,0.01 -8.722571,-0.052 -5.474975,0.1149 0.813011,0.024 -4.378419,-0.023 -0.751598,-0.01 -1.503065,0.025 -2.254672,0.031 -0.740484,0.01 -1.481032,0 -2.221513,0 -3.449257,0.028 -1.068866,0.073 -4.393653,-0.038 -1.513165,0.022 -2.968251,0.055 -4.481275,0.03 -0.706728,-0.012 -1.412566,-0.063 -2.119364,-0.068 -8.257204,-0.068 3.829072,0.1238 -4.540948,0.1 -0.690963,0 -1.380914,-0.053 -2.071371,-0.08 -1.714735,0.051 -2.683982,0.096 -4.388091,0.085 -0.669617,0 -1.338771,-0.044 -2.008401,-0.044 -1.960162,0 -3.92166,0.1047 -5.882257,0.029 -3.272594,-0.12 -0.102676,-0.074 -3.642575,0.1048 -0.537777,0.027 -1.076912,0.01 -1.615343,0.012 -1.424175,0.015 -2.847004,0.059 -4.2699241,0.1204 -1.7588366,-0.1174 -0.3201884,-0.059 -2.1270074,-0.024 -0.3029216,0.01 -0.6066019,-0.027 -0.9089133,-0.01 -0.3354315,0.022 -0.6645511,0.1065 -0.9996333,0.1336 -0.28077,0.023 -1.0289552,-10e-4 -1.3362044,-0.01 -0.7835976,0.043 -1.5709687,0.1268 -2.3557525,0.075 -0.1303418,0.049 -0.2548755,0.1177 -0.3910254,0.1468 -0.034157,0.01 -0.06111,-0.038 -0.095664,-0.043 -0.108253,-0.016 -0.2738104,0.057 -0.36154168,0.069 -0.0242555,0 -0.0467778,-0.019 -0.0712502,-0.018 -0.033102,10e-4 -0.0644266,0.015 -0.0966399,0.023 -2.64978012,-3.5858 9.71273418,-12.7256 12.36251418,-9.1416 l 0,-10e-5 z"
       sodipodi:nodetypes="cssssscccccsssssscccccccccccccsscssscsssscsssscsccsccssccsscsscsssccssssccc" />
  </g>
</svg>
